<?xml version="1.0" encoding="UTF-8"?>
<svg width="39px" height="14px" viewBox="0 0 39 14" version="1.1" xmlns="http://www.w3.org/2000/svg" xmlns:xlink="http://www.w3.org/1999/xlink">
    <!-- Generator: Sketch 53.2 (72643) - https://sketchapp.com -->
    <title>ICAP</title>
    <desc>Created with Sketch.</desc>
    <g id="Page-1" stroke="none" stroke-width="1" fill="none" fill-rule="evenodd">
        <g id="lg-1056px-16-column" transform="translate(-16.000000, -26.000000)" fill="#FFFFFF" fill-rule="nonzero">
            <path d="M16.134,39 L16.134,38.1 L17.97,38.1 L17.97,27.336 L16.134,27.336 L16.134,26.436 L20.886,26.436 L20.886,27.336 L19.05,27.336 L19.05,38.1 L20.886,38.1 L20.886,39 L16.134,39 Z M28.05,39.216 C26.4899922,39.216 25.2840043,38.6730054 24.432,37.587 C23.5799957,36.5009946 23.154,34.8900107 23.154,32.754 C23.154,30.6299894 23.5799957,29.0100056 24.432,27.894 C25.2840043,26.7779944 26.4899922,26.22 28.05,26.22 C29.058005,26.22 29.9069966,26.4599976 30.597,26.94 C31.2870035,27.4200024 31.8239981,28.0739959 32.208,28.902 L31.326,29.424 C31.0499986,28.7399966 30.6330028,28.197002 30.075,27.795 C29.5169972,27.392998 28.842004,27.192 28.05,27.192 C26.8739941,27.192 25.9560033,27.6119958 25.296,28.452 C24.6359967,29.2920042 24.306,30.4919922 24.306,32.052 L24.306,33.474 C24.306,35.0220077 24.6359967,36.2039959 25.296,37.02 C25.9560033,37.8360041 26.8739941,38.244 28.05,38.244 C28.8900042,38.244 29.5919972,38.0310021 30.156,37.605 C30.7200028,37.1789979 31.1399986,36.6060036 31.416,35.886 L32.298,36.408 C31.9259981,37.2720043 31.3800036,37.9559975 30.66,38.46 C29.9399964,38.9640025 29.0700051,39.216 28.05,39.216 Z M42.774,39 L41.406,35.094 L36.06,35.094 L34.692,39 L33.612,39 L38.058,26.436 L39.444,26.436 L43.908,39 L42.774,39 Z M38.76,27.462 L38.688,27.462 L36.33,34.158 L41.118,34.158 L38.76,27.462 Z M46.158,39 L46.158,26.436 L51.09,26.436 C52.1820055,26.436 53.0159971,26.7509968 53.592,27.381 C54.1680029,28.0110032 54.456,28.8659946 54.456,29.946 C54.456,31.0380055 54.1680029,31.8989968 53.592,32.529 C53.0159971,33.1590031 52.1820055,33.474 51.09,33.474 L47.238,33.474 L47.238,39 L46.158,39 Z M47.238,32.52 L51.09,32.52 C51.8100036,32.52 52.3589981,32.319002 52.737,31.917 C53.1150019,31.514998 53.304,31.0020031 53.304,30.378 L53.304,29.514 C53.304,28.9019969 53.1150019,28.395002 52.737,27.993 C52.3589981,27.590998 51.8100036,27.39 51.09,27.39 L47.238,27.39 L47.238,32.52 Z" id="ICAP"></path>
        </g>
    </g>
</svg>